<mxfile host="app.diagrams.net" modified="2022-03-16T06:27:07.753Z" agent="5.0 (Windows NT 10.0; Win64; x64) AppleWebKit/537.36 (KHTML, like Gecko) Chrome/98.0.4758.121 Safari/537.36" etag="zA4ztlZZIS-0SOq4leuw" version="17.1.2" type="github">
  <diagram id="nm9FaNVW28cegmUz6pwv" name="Page-1">
    <mxGraphModel dx="2153" dy="616" grid="0" gridSize="10" guides="1" tooltips="1" connect="1" arrows="1" fold="1" page="1" pageScale="1" pageWidth="827" pageHeight="1169" math="0" shadow="0">
      <root>
        <mxCell id="0" />
        <mxCell id="1" parent="0" />
        <mxCell id="ApvpiUU_C9zp6BNjHnd6-139" value="" style="rounded=0;whiteSpace=wrap;html=1;fillColor=#f5f5f5;strokeColor=#666666;comic=1;fontColor=#333333;" vertex="1" parent="1">
          <mxGeometry x="-437" y="129" width="154" height="217" as="geometry" />
        </mxCell>
        <mxCell id="ApvpiUU_C9zp6BNjHnd6-1" value="" style="rounded=0;whiteSpace=wrap;html=1;comic=1;fontFamily=Comic Sans MS;fontSize=14;fillColor=#dae8fc;strokeColor=#6c8ebf;" vertex="1" parent="1">
          <mxGeometry x="-729" y="80" width="177" height="71" as="geometry" />
        </mxCell>
        <mxCell id="ApvpiUU_C9zp6BNjHnd6-121" style="edgeStyle=orthogonalEdgeStyle;rounded=1;orthogonalLoop=1;jettySize=auto;html=1;exitX=0;exitY=0.5;exitDx=0;exitDy=0;entryX=0.104;entryY=0.011;entryDx=0;entryDy=0;entryPerimeter=0;fontSize=12;" edge="1" parent="1" source="ApvpiUU_C9zp6BNjHnd6-3" target="ApvpiUU_C9zp6BNjHnd6-5">
          <mxGeometry relative="1" as="geometry">
            <Array as="points">
              <mxPoint x="-767" y="131" />
            </Array>
          </mxGeometry>
        </mxCell>
        <mxCell id="ApvpiUU_C9zp6BNjHnd6-3" value="&lt;font face=&quot;Comic Sans MS&quot; style=&quot;font-size: 12px&quot;&gt;&lt;b&gt;struct files_struct *files&lt;/b&gt;&lt;/font&gt;" style="rounded=0;whiteSpace=wrap;html=1;fillColor=#d5e8d4;strokeColor=#82B366;comic=1;imageWidth=24;" vertex="1" parent="1">
          <mxGeometry x="-722" y="118" width="160" height="26" as="geometry" />
        </mxCell>
        <mxCell id="ApvpiUU_C9zp6BNjHnd6-4" value="&lt;font style=&quot;font-size: 12px&quot;&gt;struct&amp;nbsp;task_struct&lt;/font&gt;" style="text;strokeColor=none;fillColor=none;fontSize=24;fontStyle=1;verticalAlign=middle;align=center;comic=1;fontFamily=Comic Sans MS;spacing=0;horizontal=1;labelPosition=center;verticalLabelPosition=middle;labelBackgroundColor=default;html=1;" vertex="1" parent="1">
          <mxGeometry x="-702" y="54" width="117" height="20" as="geometry" />
        </mxCell>
        <mxCell id="ApvpiUU_C9zp6BNjHnd6-5" value="" style="rounded=0;whiteSpace=wrap;html=1;comic=1;fontFamily=Comic Sans MS;fontSize=14;fillColor=#dae8fc;strokeColor=#6c8ebf;" vertex="1" parent="1">
          <mxGeometry x="-800" y="186" width="319" height="76" as="geometry" />
        </mxCell>
        <mxCell id="ApvpiUU_C9zp6BNjHnd6-136" style="edgeStyle=orthogonalEdgeStyle;rounded=1;orthogonalLoop=1;jettySize=auto;html=1;exitX=0;exitY=0.5;exitDx=0;exitDy=0;entryX=0;entryY=0.5;entryDx=0;entryDy=0;fontFamily=Comic Sans MS;fontSize=12;" edge="1" parent="1" source="ApvpiUU_C9zp6BNjHnd6-7" target="ApvpiUU_C9zp6BNjHnd6-9">
          <mxGeometry relative="1" as="geometry">
            <Array as="points">
              <mxPoint x="-747" y="242" />
              <mxPoint x="-747" y="329" />
            </Array>
          </mxGeometry>
        </mxCell>
        <mxCell id="ApvpiUU_C9zp6BNjHnd6-7" value="&lt;font face=&quot;Comic Sans MS&quot; style=&quot;font-size: 12px&quot;&gt;&lt;b&gt;struct fdtable *fdt&lt;/b&gt;&lt;/font&gt;" style="rounded=0;whiteSpace=wrap;html=1;fillColor=#d5e8d4;strokeColor=#82b366;comic=1;" vertex="1" parent="1">
          <mxGeometry x="-713" y="229" width="132.5" height="26" as="geometry" />
        </mxCell>
        <mxCell id="ApvpiUU_C9zp6BNjHnd6-8" value="&lt;font style=&quot;font-size: 12px&quot;&gt;struct files_struct&lt;/font&gt;" style="text;strokeColor=none;fillColor=none;fontSize=24;fontStyle=1;verticalAlign=middle;align=center;comic=1;fontFamily=Comic Sans MS;spacing=0;horizontal=1;labelPosition=center;verticalLabelPosition=middle;labelBackgroundColor=default;html=1;" vertex="1" parent="1">
          <mxGeometry x="-699" y="159" width="117" height="20" as="geometry" />
        </mxCell>
        <mxCell id="ApvpiUU_C9zp6BNjHnd6-9" value="" style="rounded=0;whiteSpace=wrap;html=1;comic=1;fontFamily=Comic Sans MS;fontSize=14;fillColor=#dae8fc;strokeColor=#6c8ebf;" vertex="1" parent="1">
          <mxGeometry x="-713.75" y="309" width="146.5" height="40" as="geometry" />
        </mxCell>
        <mxCell id="ApvpiUU_C9zp6BNjHnd6-141" style="edgeStyle=orthogonalEdgeStyle;rounded=1;orthogonalLoop=1;jettySize=auto;html=1;exitX=1;exitY=0.5;exitDx=0;exitDy=0;entryX=0.006;entryY=0.92;entryDx=0;entryDy=0;entryPerimeter=0;fontFamily=Comic Sans MS;fontSize=12;" edge="1" parent="1" source="ApvpiUU_C9zp6BNjHnd6-11" target="ApvpiUU_C9zp6BNjHnd6-139">
          <mxGeometry relative="1" as="geometry" />
        </mxCell>
        <mxCell id="ApvpiUU_C9zp6BNjHnd6-11" value="&lt;font face=&quot;Comic Sans MS&quot; style=&quot;font-size: 12px&quot;&gt;&lt;b&gt;struct fdtable **fd&lt;/b&gt;&lt;/font&gt;" style="rounded=0;whiteSpace=wrap;html=1;fillColor=#d5e8d4;strokeColor=#82b366;comic=1;" vertex="1" parent="1">
          <mxGeometry x="-706.75" y="316" width="132.5" height="26" as="geometry" />
        </mxCell>
        <mxCell id="ApvpiUU_C9zp6BNjHnd6-12" value="&lt;font style=&quot;font-size: 12px&quot;&gt;struct fdtable&lt;/font&gt;" style="text;strokeColor=none;fillColor=none;fontSize=24;fontStyle=1;verticalAlign=middle;align=center;comic=1;fontFamily=Comic Sans MS;spacing=0;horizontal=1;labelPosition=center;verticalLabelPosition=middle;labelBackgroundColor=default;html=1;" vertex="1" parent="1">
          <mxGeometry x="-699" y="281" width="117" height="20" as="geometry" />
        </mxCell>
        <mxCell id="ApvpiUU_C9zp6BNjHnd6-13" value="&lt;font face=&quot;Comic Sans MS&quot;&gt;&lt;b&gt;file&lt;/b&gt;&lt;/font&gt;" style="rounded=0;whiteSpace=wrap;html=1;fillColor=#d5e8d4;strokeColor=#82b366;comic=1;" vertex="1" parent="1">
          <mxGeometry x="-360" y="177" width="64" height="20" as="geometry" />
        </mxCell>
        <mxCell id="ApvpiUU_C9zp6BNjHnd6-14" value="&lt;font face=&quot;comic sans ms&quot;&gt;&lt;b&gt;file&lt;/b&gt;&lt;/font&gt;" style="rounded=0;whiteSpace=wrap;html=1;fillColor=#d5e8d4;strokeColor=#82b366;comic=1;" vertex="1" parent="1">
          <mxGeometry x="-360" y="195" width="64" height="20" as="geometry" />
        </mxCell>
        <mxCell id="ApvpiUU_C9zp6BNjHnd6-142" style="edgeStyle=orthogonalEdgeStyle;rounded=1;orthogonalLoop=1;jettySize=auto;html=1;exitX=1;exitY=0.5;exitDx=0;exitDy=0;entryX=0;entryY=0.5;entryDx=0;entryDy=0;fontFamily=Comic Sans MS;fontSize=12;" edge="1" parent="1" source="ApvpiUU_C9zp6BNjHnd6-15" target="ApvpiUU_C9zp6BNjHnd6-24">
          <mxGeometry relative="1" as="geometry" />
        </mxCell>
        <mxCell id="ApvpiUU_C9zp6BNjHnd6-15" value="&lt;font face=&quot;comic sans ms&quot;&gt;&lt;b&gt;file&lt;/b&gt;&lt;/font&gt;" style="rounded=0;whiteSpace=wrap;html=1;fillColor=#d5e8d4;strokeColor=#82b366;comic=1;" vertex="1" parent="1">
          <mxGeometry x="-360" y="215" width="64" height="20" as="geometry" />
        </mxCell>
        <mxCell id="ApvpiUU_C9zp6BNjHnd6-17" value="&lt;b style=&quot;font-family: &amp;#34;comic sans ms&amp;#34;&quot;&gt;file&lt;/b&gt;" style="rounded=0;whiteSpace=wrap;html=1;fillColor=#d5e8d4;strokeColor=#82b366;comic=1;" vertex="1" parent="1">
          <mxGeometry x="-360" y="235" width="64" height="20" as="geometry" />
        </mxCell>
        <mxCell id="ApvpiUU_C9zp6BNjHnd6-19" value="&lt;b style=&quot;font-family: &amp;#34;comic sans ms&amp;#34;&quot;&gt;file&lt;/b&gt;" style="rounded=0;whiteSpace=wrap;html=1;fillColor=#d5e8d4;strokeColor=#82b366;comic=1;" vertex="1" parent="1">
          <mxGeometry x="-360" y="255" width="64" height="20" as="geometry" />
        </mxCell>
        <mxCell id="ApvpiUU_C9zp6BNjHnd6-20" value="&lt;b style=&quot;font-family: &amp;#34;comic sans ms&amp;#34;&quot;&gt;file&lt;/b&gt;" style="rounded=0;whiteSpace=wrap;html=1;fillColor=#d5e8d4;strokeColor=#82b366;comic=1;" vertex="1" parent="1">
          <mxGeometry x="-360" y="275" width="64" height="20" as="geometry" />
        </mxCell>
        <mxCell id="ApvpiUU_C9zp6BNjHnd6-21" value="&lt;font style=&quot;font-size: 12px&quot; face=&quot;Comic Sans MS&quot;&gt;&lt;b&gt;struct file&lt;/b&gt;&lt;/font&gt;" style="rounded=0;whiteSpace=wrap;html=1;fillColor=#d5e8d4;strokeColor=#82b366;comic=1;" vertex="1" parent="1">
          <mxGeometry x="-360" y="157" width="64" height="20" as="geometry" />
        </mxCell>
        <mxCell id="ApvpiUU_C9zp6BNjHnd6-22" value="&lt;span style=&quot;font-size: 12px&quot;&gt;&lt;font face=&quot;YaHei Consolas Hybrid&quot;&gt;进程打开的文件列表&lt;/font&gt;&lt;/span&gt;" style="text;strokeColor=none;fillColor=none;fontSize=24;fontStyle=1;verticalAlign=middle;align=center;comic=1;fontFamily=Comic Sans MS;spacing=0;horizontal=1;labelPosition=center;verticalLabelPosition=middle;labelBackgroundColor=none;html=1;" vertex="1" parent="1">
          <mxGeometry x="-400" y="129" width="80" height="20" as="geometry" />
        </mxCell>
        <mxCell id="ApvpiUU_C9zp6BNjHnd6-23" value="&lt;font face=&quot;Comic Sans MS&quot;&gt;&lt;b&gt;pid_t pid&lt;/b&gt;&lt;/font&gt;" style="rounded=0;whiteSpace=wrap;html=1;fillColor=#d5e8d4;strokeColor=#82B366;comic=1;imageWidth=24;" vertex="1" parent="1">
          <mxGeometry x="-703.5" y="86" width="120" height="26" as="geometry" />
        </mxCell>
        <mxCell id="ApvpiUU_C9zp6BNjHnd6-24" value="" style="rounded=0;whiteSpace=wrap;html=1;comic=1;fontFamily=Comic Sans MS;fontSize=14;fillColor=#dae8fc;strokeColor=#6c8ebf;" vertex="1" parent="1">
          <mxGeometry x="-253.99999999999994" y="189.5" width="188" height="71" as="geometry" />
        </mxCell>
        <mxCell id="ApvpiUU_C9zp6BNjHnd6-25" value="&lt;font face=&quot;Comic Sans MS&quot; style=&quot;font-size: 12px&quot;&gt;&lt;b&gt;struct files_operations *f_op&lt;/b&gt;&lt;/font&gt;" style="rounded=0;whiteSpace=wrap;html=1;fillColor=#ffe6cc;strokeColor=#d79b00;comic=1;imageWidth=24;" vertex="1" parent="1">
          <mxGeometry x="-246.99999999999991" y="227.5" width="174" height="26" as="geometry" />
        </mxCell>
        <mxCell id="ApvpiUU_C9zp6BNjHnd6-26" value="&lt;font style=&quot;font-size: 12px&quot;&gt;struct&amp;nbsp;file&lt;/font&gt;" style="text;strokeColor=none;fillColor=none;fontSize=24;fontStyle=1;verticalAlign=middle;align=center;comic=1;fontFamily=Comic Sans MS;spacing=0;horizontal=1;labelPosition=center;verticalLabelPosition=middle;labelBackgroundColor=default;html=1;" vertex="1" parent="1">
          <mxGeometry x="-216.49999999999994" y="161" width="117" height="20" as="geometry" />
        </mxCell>
        <mxCell id="ApvpiUU_C9zp6BNjHnd6-144" style="edgeStyle=orthogonalEdgeStyle;rounded=1;orthogonalLoop=1;jettySize=auto;html=1;exitX=1;exitY=0.5;exitDx=0;exitDy=0;fontFamily=Comic Sans MS;fontSize=12;" edge="1" parent="1" source="ApvpiUU_C9zp6BNjHnd6-27">
          <mxGeometry relative="1" as="geometry">
            <mxPoint x="-22" y="209" as="targetPoint" />
          </mxGeometry>
        </mxCell>
        <mxCell id="ApvpiUU_C9zp6BNjHnd6-27" value="&lt;font face=&quot;Comic Sans MS&quot;&gt;&lt;b&gt;void *private_data&lt;/b&gt;&lt;/font&gt;" style="rounded=0;whiteSpace=wrap;html=1;fillColor=#d5e8d4;strokeColor=#82B366;comic=1;imageWidth=24;" vertex="1" parent="1">
          <mxGeometry x="-246.99999999999991" y="196" width="174" height="26" as="geometry" />
        </mxCell>
        <mxCell id="ApvpiUU_C9zp6BNjHnd6-29" value="" style="rounded=0;whiteSpace=wrap;html=1;comic=1;fontFamily=Comic Sans MS;fontSize=14;fillColor=#dae8fc;strokeColor=#6c8ebf;" vertex="1" parent="1">
          <mxGeometry x="-21" y="187" width="173" height="106" as="geometry" />
        </mxCell>
        <mxCell id="ApvpiUU_C9zp6BNjHnd6-30" value="&lt;font face=&quot;Comic Sans MS&quot; style=&quot;font-size: 12px&quot;&gt;&lt;b&gt;struct proto_ops *ops&lt;/b&gt;&lt;/font&gt;" style="rounded=0;whiteSpace=wrap;html=1;fillColor=#ffe6cc;strokeColor=#d79b00;comic=1;imageWidth=24;" vertex="1" parent="1">
          <mxGeometry x="-14" y="260.5" width="160" height="26" as="geometry" />
        </mxCell>
        <mxCell id="ApvpiUU_C9zp6BNjHnd6-31" value="&lt;font style=&quot;font-size: 12px&quot;&gt;struct&amp;nbsp;socket&lt;/font&gt;" style="text;strokeColor=none;fillColor=none;fontSize=24;fontStyle=1;verticalAlign=middle;align=center;comic=1;fontFamily=Comic Sans MS;spacing=0;horizontal=1;labelPosition=center;verticalLabelPosition=middle;labelBackgroundColor=default;html=1;" vertex="1" parent="1">
          <mxGeometry x="6" y="161" width="117" height="20" as="geometry" />
        </mxCell>
        <mxCell id="ApvpiUU_C9zp6BNjHnd6-155" style="edgeStyle=orthogonalEdgeStyle;rounded=1;orthogonalLoop=1;jettySize=auto;html=1;exitX=1;exitY=0.5;exitDx=0;exitDy=0;entryX=-0.001;entryY=0.201;entryDx=0;entryDy=0;entryPerimeter=0;fontFamily=Comic Sans MS;fontSize=12;" edge="1" parent="1" source="ApvpiUU_C9zp6BNjHnd6-32" target="ApvpiUU_C9zp6BNjHnd6-146">
          <mxGeometry relative="1" as="geometry" />
        </mxCell>
        <mxCell id="ApvpiUU_C9zp6BNjHnd6-32" value="&lt;font face=&quot;Comic Sans MS&quot;&gt;&lt;b&gt;struct sock *sk&lt;/b&gt;&lt;/font&gt;" style="rounded=0;whiteSpace=wrap;html=1;fillColor=#d5e8d4;strokeColor=#82B366;comic=1;imageWidth=24;" vertex="1" parent="1">
          <mxGeometry x="-14" y="194" width="160" height="26" as="geometry" />
        </mxCell>
        <mxCell id="ApvpiUU_C9zp6BNjHnd6-61" value="" style="rounded=0;whiteSpace=wrap;html=1;comic=1;fontFamily=Comic Sans MS;fontSize=14;fillColor=#f8cecc;strokeColor=#b85450;" vertex="1" parent="1">
          <mxGeometry x="-253.99999999999997" y="398" width="200" height="108" as="geometry" />
        </mxCell>
        <mxCell id="ApvpiUU_C9zp6BNjHnd6-62" style="edgeStyle=none;rounded=1;comic=0;orthogonalLoop=1;jettySize=auto;html=1;exitX=1;exitY=0.5;exitDx=0;exitDy=0;entryX=0;entryY=0.5;entryDx=0;entryDy=0;" edge="1" parent="1" source="ApvpiUU_C9zp6BNjHnd6-63" target="ApvpiUU_C9zp6BNjHnd6-65">
          <mxGeometry relative="1" as="geometry" />
        </mxCell>
        <mxCell id="ApvpiUU_C9zp6BNjHnd6-63" value="&lt;font face=&quot;Comic Sans MS&quot; style=&quot;font-size: 12px&quot;&gt;&lt;b&gt;.aio_read&lt;/b&gt;&lt;/font&gt;" style="rounded=0;whiteSpace=wrap;html=1;fillColor=#ffe6cc;strokeColor=#d79b00;comic=1;imageWidth=24;" vertex="1" parent="1">
          <mxGeometry x="-243.5" y="403" width="67" height="26" as="geometry" />
        </mxCell>
        <mxCell id="ApvpiUU_C9zp6BNjHnd6-64" value="&lt;font style=&quot;font-size: 12px&quot;&gt;socket_file_ops&lt;/font&gt;" style="text;strokeColor=none;fillColor=none;fontSize=24;fontStyle=1;verticalAlign=middle;align=center;comic=1;fontFamily=Comic Sans MS;spacing=0;horizontal=1;labelPosition=center;verticalLabelPosition=middle;labelBackgroundColor=default;html=1;" vertex="1" parent="1">
          <mxGeometry x="-227.00000000000006" y="372" width="117" height="20" as="geometry" />
        </mxCell>
        <mxCell id="ApvpiUU_C9zp6BNjHnd6-65" value="&lt;font face=&quot;Comic Sans MS&quot; style=&quot;font-size: 12px&quot;&gt;&lt;b&gt;sock_aio_read&lt;/b&gt;&lt;/font&gt;" style="rounded=0;whiteSpace=wrap;html=1;fillColor=#ffe6cc;strokeColor=#d79b00;comic=1;imageWidth=24;" vertex="1" parent="1">
          <mxGeometry x="-152.00000000000006" y="403" width="89" height="26" as="geometry" />
        </mxCell>
        <mxCell id="ApvpiUU_C9zp6BNjHnd6-66" style="edgeStyle=none;rounded=1;comic=0;orthogonalLoop=1;jettySize=auto;html=1;exitX=1;exitY=0.5;exitDx=0;exitDy=0;entryX=0;entryY=0.5;entryDx=0;entryDy=0;" edge="1" parent="1" source="ApvpiUU_C9zp6BNjHnd6-67" target="ApvpiUU_C9zp6BNjHnd6-68">
          <mxGeometry relative="1" as="geometry" />
        </mxCell>
        <mxCell id="ApvpiUU_C9zp6BNjHnd6-67" value="&lt;font face=&quot;Comic Sans MS&quot; style=&quot;font-size: 12px&quot;&gt;&lt;b&gt;.aio_write&lt;/b&gt;&lt;/font&gt;" style="rounded=0;whiteSpace=wrap;html=1;fillColor=#ffe6cc;strokeColor=#d79b00;comic=1;imageWidth=24;" vertex="1" parent="1">
          <mxGeometry x="-243.5" y="438" width="67" height="26" as="geometry" />
        </mxCell>
        <mxCell id="ApvpiUU_C9zp6BNjHnd6-68" value="&lt;font face=&quot;Comic Sans MS&quot; style=&quot;font-size: 12px&quot;&gt;&lt;b&gt;sock_aio_write&lt;/b&gt;&lt;/font&gt;" style="rounded=0;whiteSpace=wrap;html=1;fillColor=#ffe6cc;strokeColor=#d79b00;comic=1;imageWidth=24;" vertex="1" parent="1">
          <mxGeometry x="-152.00000000000006" y="438" width="89" height="26" as="geometry" />
        </mxCell>
        <mxCell id="ApvpiUU_C9zp6BNjHnd6-69" style="edgeStyle=none;rounded=1;comic=0;orthogonalLoop=1;jettySize=auto;html=1;exitX=1;exitY=0.5;exitDx=0;exitDy=0;entryX=0;entryY=0.5;entryDx=0;entryDy=0;" edge="1" parent="1" source="ApvpiUU_C9zp6BNjHnd6-70" target="ApvpiUU_C9zp6BNjHnd6-71">
          <mxGeometry relative="1" as="geometry" />
        </mxCell>
        <mxCell id="ApvpiUU_C9zp6BNjHnd6-70" value="&lt;font face=&quot;Comic Sans MS&quot; style=&quot;font-size: 12px&quot;&gt;&lt;b&gt;.poll&lt;/b&gt;&lt;/font&gt;" style="rounded=0;whiteSpace=wrap;html=1;fillColor=#ffe6cc;strokeColor=#d79b00;comic=1;imageWidth=24;" vertex="1" parent="1">
          <mxGeometry x="-243.5" y="474" width="67" height="26" as="geometry" />
        </mxCell>
        <mxCell id="ApvpiUU_C9zp6BNjHnd6-71" value="&lt;font face=&quot;Comic Sans MS&quot; style=&quot;font-size: 12px&quot;&gt;&lt;b&gt;sock_poll&lt;/b&gt;&lt;/font&gt;" style="rounded=0;whiteSpace=wrap;html=1;fillColor=#ffe6cc;strokeColor=#d79b00;comic=1;imageWidth=24;" vertex="1" parent="1">
          <mxGeometry x="-152.00000000000006" y="474" width="89" height="26" as="geometry" />
        </mxCell>
        <mxCell id="ApvpiUU_C9zp6BNjHnd6-84" value="" style="rounded=0;whiteSpace=wrap;html=1;comic=1;fontFamily=Comic Sans MS;fontSize=14;fillColor=#f8cecc;strokeColor=#b85450;" vertex="1" parent="1">
          <mxGeometry x="209" y="440" width="208" height="108" as="geometry" />
        </mxCell>
        <mxCell id="ApvpiUU_C9zp6BNjHnd6-85" style="edgeStyle=none;rounded=1;comic=0;orthogonalLoop=1;jettySize=auto;html=1;exitX=1;exitY=0.5;exitDx=0;exitDy=0;entryX=0;entryY=0.5;entryDx=0;entryDy=0;" edge="1" parent="1" source="ApvpiUU_C9zp6BNjHnd6-86" target="ApvpiUU_C9zp6BNjHnd6-88">
          <mxGeometry relative="1" as="geometry" />
        </mxCell>
        <mxCell id="ApvpiUU_C9zp6BNjHnd6-86" value="&lt;font face=&quot;Comic Sans MS&quot; style=&quot;font-size: 12px&quot;&gt;&lt;b&gt;.connect&lt;/b&gt;&lt;/font&gt;" style="rounded=0;whiteSpace=wrap;html=1;fillColor=#ffe6cc;strokeColor=#d79b00;comic=1;imageWidth=24;" vertex="1" parent="1">
          <mxGeometry x="219.5" y="445" width="67" height="26" as="geometry" />
        </mxCell>
        <mxCell id="ApvpiUU_C9zp6BNjHnd6-87" value="&lt;span style=&quot;font-size: 12px&quot;&gt;struct proto tcp_prot&lt;/span&gt;" style="text;strokeColor=none;fillColor=none;fontSize=24;fontStyle=1;verticalAlign=middle;align=center;comic=1;fontFamily=Comic Sans MS;spacing=0;horizontal=1;labelPosition=center;verticalLabelPosition=middle;labelBackgroundColor=default;html=1;" vertex="1" parent="1">
          <mxGeometry x="254.5" y="414" width="117" height="20" as="geometry" />
        </mxCell>
        <mxCell id="ApvpiUU_C9zp6BNjHnd6-88" value="&lt;font face=&quot;Comic Sans MS&quot; style=&quot;font-size: 12px&quot;&gt;&lt;b&gt;tcp_v4_connect&lt;/b&gt;&lt;/font&gt;" style="rounded=0;whiteSpace=wrap;html=1;fillColor=#ffe6cc;strokeColor=#d79b00;comic=1;imageWidth=24;" vertex="1" parent="1">
          <mxGeometry x="311" y="445" width="96" height="26" as="geometry" />
        </mxCell>
        <mxCell id="ApvpiUU_C9zp6BNjHnd6-89" style="edgeStyle=none;rounded=1;comic=0;orthogonalLoop=1;jettySize=auto;html=1;exitX=1;exitY=0.5;exitDx=0;exitDy=0;entryX=0;entryY=0.5;entryDx=0;entryDy=0;" edge="1" parent="1" source="ApvpiUU_C9zp6BNjHnd6-90" target="ApvpiUU_C9zp6BNjHnd6-91">
          <mxGeometry relative="1" as="geometry" />
        </mxCell>
        <mxCell id="ApvpiUU_C9zp6BNjHnd6-90" value="&lt;font face=&quot;Comic Sans MS&quot; style=&quot;font-size: 12px&quot;&gt;&lt;b&gt;.recvmsg&lt;/b&gt;&lt;/font&gt;" style="rounded=0;whiteSpace=wrap;html=1;fillColor=#ffe6cc;strokeColor=#d79b00;comic=1;imageWidth=24;" vertex="1" parent="1">
          <mxGeometry x="219.5" y="480" width="67" height="26" as="geometry" />
        </mxCell>
        <mxCell id="ApvpiUU_C9zp6BNjHnd6-91" value="&lt;font face=&quot;Comic Sans MS&quot; style=&quot;font-size: 12px&quot;&gt;&lt;b&gt;tcp_recvmsg&lt;/b&gt;&lt;/font&gt;" style="rounded=0;whiteSpace=wrap;html=1;fillColor=#ffe6cc;strokeColor=#d79b00;comic=1;imageWidth=24;" vertex="1" parent="1">
          <mxGeometry x="311" y="480" width="96" height="26" as="geometry" />
        </mxCell>
        <mxCell id="ApvpiUU_C9zp6BNjHnd6-92" style="edgeStyle=none;rounded=1;comic=0;orthogonalLoop=1;jettySize=auto;html=1;exitX=1;exitY=0.5;exitDx=0;exitDy=0;entryX=0;entryY=0.5;entryDx=0;entryDy=0;" edge="1" parent="1" source="ApvpiUU_C9zp6BNjHnd6-93" target="ApvpiUU_C9zp6BNjHnd6-94">
          <mxGeometry relative="1" as="geometry" />
        </mxCell>
        <mxCell id="ApvpiUU_C9zp6BNjHnd6-93" value="&lt;font face=&quot;Comic Sans MS&quot; style=&quot;font-size: 12px&quot;&gt;&lt;b&gt;.sendmsg&lt;/b&gt;&lt;/font&gt;" style="rounded=0;whiteSpace=wrap;html=1;fillColor=#ffe6cc;strokeColor=#d79b00;comic=1;imageWidth=24;" vertex="1" parent="1">
          <mxGeometry x="219.5" y="516" width="67" height="26" as="geometry" />
        </mxCell>
        <mxCell id="ApvpiUU_C9zp6BNjHnd6-94" value="&lt;font face=&quot;Comic Sans MS&quot; style=&quot;font-size: 12px&quot;&gt;&lt;b&gt;tcp_sendmsg&lt;/b&gt;&lt;/font&gt;" style="rounded=0;whiteSpace=wrap;html=1;fillColor=#ffe6cc;strokeColor=#d79b00;comic=1;imageWidth=24;" vertex="1" parent="1">
          <mxGeometry x="311" y="516" width="96" height="26" as="geometry" />
        </mxCell>
        <mxCell id="ApvpiUU_C9zp6BNjHnd6-99" value="" style="rounded=0;whiteSpace=wrap;html=1;comic=1;fontFamily=Comic Sans MS;fontSize=14;fillColor=#f8cecc;strokeColor=#b85450;" vertex="1" parent="1">
          <mxGeometry x="-21" y="399" width="188" height="149" as="geometry" />
        </mxCell>
        <mxCell id="ApvpiUU_C9zp6BNjHnd6-100" style="edgeStyle=none;rounded=1;comic=0;orthogonalLoop=1;jettySize=auto;html=1;exitX=1;exitY=0.5;exitDx=0;exitDy=0;entryX=0;entryY=0.5;entryDx=0;entryDy=0;" edge="1" parent="1" source="ApvpiUU_C9zp6BNjHnd6-101" target="ApvpiUU_C9zp6BNjHnd6-103">
          <mxGeometry relative="1" as="geometry" />
        </mxCell>
        <mxCell id="ApvpiUU_C9zp6BNjHnd6-101" value="&lt;font face=&quot;Comic Sans MS&quot; style=&quot;font-size: 12px&quot;&gt;&lt;b&gt;.accept&lt;/b&gt;&lt;/font&gt;" style="rounded=0;whiteSpace=wrap;html=1;fillColor=#ffe6cc;strokeColor=#d79b00;comic=1;imageWidth=24;" vertex="1" parent="1">
          <mxGeometry x="-14.5" y="406" width="67" height="26" as="geometry" />
        </mxCell>
        <mxCell id="ApvpiUU_C9zp6BNjHnd6-102" value="&lt;span style=&quot;font-size: 12px&quot;&gt;inet_stream_ops&lt;/span&gt;" style="text;strokeColor=none;fillColor=none;fontSize=24;fontStyle=1;verticalAlign=middle;align=center;comic=1;fontFamily=Comic Sans MS;spacing=0;horizontal=1;labelPosition=center;verticalLabelPosition=middle;labelBackgroundColor=default;html=1;" vertex="1" parent="1">
          <mxGeometry x="14.5" y="371" width="117" height="20" as="geometry" />
        </mxCell>
        <mxCell id="ApvpiUU_C9zp6BNjHnd6-103" value="&lt;font face=&quot;Comic Sans MS&quot; style=&quot;font-size: 12px&quot;&gt;&lt;b&gt;inet_accept&lt;/b&gt;&lt;/font&gt;" style="rounded=0;whiteSpace=wrap;html=1;fillColor=#ffe6cc;strokeColor=#d79b00;comic=1;imageWidth=24;" vertex="1" parent="1">
          <mxGeometry x="77" y="406" width="85" height="27" as="geometry" />
        </mxCell>
        <mxCell id="ApvpiUU_C9zp6BNjHnd6-104" style="edgeStyle=none;rounded=1;comic=0;orthogonalLoop=1;jettySize=auto;html=1;exitX=1;exitY=0.5;exitDx=0;exitDy=0;entryX=0;entryY=0.5;entryDx=0;entryDy=0;" edge="1" parent="1" source="ApvpiUU_C9zp6BNjHnd6-105" target="ApvpiUU_C9zp6BNjHnd6-106">
          <mxGeometry relative="1" as="geometry" />
        </mxCell>
        <mxCell id="ApvpiUU_C9zp6BNjHnd6-105" value="&lt;font face=&quot;Comic Sans MS&quot; style=&quot;font-size: 12px&quot;&gt;&lt;b&gt;.poll&lt;/b&gt;&lt;/font&gt;" style="rounded=0;whiteSpace=wrap;html=1;fillColor=#ffe6cc;strokeColor=#d79b00;comic=1;imageWidth=24;" vertex="1" parent="1">
          <mxGeometry x="-14.5" y="441" width="67" height="26" as="geometry" />
        </mxCell>
        <mxCell id="ApvpiUU_C9zp6BNjHnd6-106" value="&lt;font face=&quot;Comic Sans MS&quot; style=&quot;font-size: 12px&quot;&gt;&lt;b&gt;tcp_poll&lt;/b&gt;&lt;/font&gt;" style="rounded=0;whiteSpace=wrap;html=1;fillColor=#ffe6cc;strokeColor=#d79b00;comic=1;imageWidth=24;" vertex="1" parent="1">
          <mxGeometry x="77" y="441" width="85" height="26" as="geometry" />
        </mxCell>
        <mxCell id="ApvpiUU_C9zp6BNjHnd6-107" style="edgeStyle=none;rounded=1;comic=0;orthogonalLoop=1;jettySize=auto;html=1;exitX=1;exitY=0.5;exitDx=0;exitDy=0;entryX=0;entryY=0.5;entryDx=0;entryDy=0;" edge="1" parent="1" source="ApvpiUU_C9zp6BNjHnd6-108" target="ApvpiUU_C9zp6BNjHnd6-109">
          <mxGeometry relative="1" as="geometry" />
        </mxCell>
        <mxCell id="ApvpiUU_C9zp6BNjHnd6-108" value="&lt;font face=&quot;Comic Sans MS&quot; style=&quot;font-size: 12px&quot;&gt;&lt;b&gt;.sendmsg&lt;/b&gt;&lt;/font&gt;" style="rounded=0;whiteSpace=wrap;html=1;fillColor=#ffe6cc;strokeColor=#d79b00;comic=1;imageWidth=24;" vertex="1" parent="1">
          <mxGeometry x="-14.5" y="477" width="67" height="26" as="geometry" />
        </mxCell>
        <mxCell id="ApvpiUU_C9zp6BNjHnd6-109" value="&lt;font face=&quot;Comic Sans MS&quot; style=&quot;font-size: 12px&quot;&gt;&lt;b&gt;inet_sendmsg&lt;/b&gt;&lt;/font&gt;" style="rounded=0;whiteSpace=wrap;html=1;fillColor=#ffe6cc;strokeColor=#d79b00;comic=1;imageWidth=24;" vertex="1" parent="1">
          <mxGeometry x="77" y="477" width="85" height="27" as="geometry" />
        </mxCell>
        <mxCell id="ApvpiUU_C9zp6BNjHnd6-110" value="&lt;span style=&quot;font-size: 12px&quot;&gt;struct proto_ops&lt;/span&gt;" style="text;strokeColor=none;fillColor=none;fontSize=24;fontStyle=1;verticalAlign=middle;align=center;comic=1;fontFamily=Comic Sans MS;spacing=0;horizontal=1;labelPosition=center;verticalLabelPosition=middle;labelBackgroundColor=default;html=1;" vertex="1" parent="1">
          <mxGeometry x="14.5" y="354" width="117" height="20" as="geometry" />
        </mxCell>
        <mxCell id="ApvpiUU_C9zp6BNjHnd6-111" style="edgeStyle=none;rounded=1;comic=0;orthogonalLoop=1;jettySize=auto;html=1;exitX=1;exitY=0.5;exitDx=0;exitDy=0;entryX=0;entryY=0.5;entryDx=0;entryDy=0;" edge="1" parent="1" source="ApvpiUU_C9zp6BNjHnd6-112" target="ApvpiUU_C9zp6BNjHnd6-113">
          <mxGeometry relative="1" as="geometry" />
        </mxCell>
        <mxCell id="ApvpiUU_C9zp6BNjHnd6-112" value="&lt;font face=&quot;Comic Sans MS&quot; style=&quot;font-size: 12px&quot;&gt;&lt;b&gt;.recvmsg&lt;/b&gt;&lt;/font&gt;" style="rounded=0;whiteSpace=wrap;html=1;fillColor=#ffe6cc;strokeColor=#d79b00;comic=1;imageWidth=24;" vertex="1" parent="1">
          <mxGeometry x="-14" y="517" width="67" height="26" as="geometry" />
        </mxCell>
        <mxCell id="ApvpiUU_C9zp6BNjHnd6-113" value="&lt;font face=&quot;Comic Sans MS&quot; style=&quot;font-size: 12px&quot;&gt;&lt;b&gt;inet_recvmsg&lt;/b&gt;&lt;/font&gt;" style="rounded=0;whiteSpace=wrap;html=1;fillColor=#ffe6cc;strokeColor=#d79b00;comic=1;imageWidth=24;" vertex="1" parent="1">
          <mxGeometry x="77.5" y="517" width="85" height="26" as="geometry" />
        </mxCell>
        <mxCell id="ApvpiUU_C9zp6BNjHnd6-140" style="edgeStyle=orthogonalEdgeStyle;rounded=1;orthogonalLoop=1;jettySize=auto;html=1;exitX=1;exitY=0.5;exitDx=0;exitDy=0;entryX=0.003;entryY=0.353;entryDx=0;entryDy=0;entryPerimeter=0;fontFamily=Comic Sans MS;fontSize=12;" edge="1" parent="1" source="ApvpiUU_C9zp6BNjHnd6-116" target="ApvpiUU_C9zp6BNjHnd6-139">
          <mxGeometry relative="1" as="geometry" />
        </mxCell>
        <mxCell id="ApvpiUU_C9zp6BNjHnd6-116" value="&lt;font face=&quot;Comic Sans MS&quot;&gt;&lt;b&gt;struct file __rcu * fd_array[NR_OPEN_DEFAULT]&lt;/b&gt;&lt;/font&gt;" style="rounded=0;whiteSpace=wrap;html=1;fillColor=#d5e8d4;strokeColor=#82b366;comic=1;" vertex="1" parent="1">
          <mxGeometry x="-793" y="193" width="306" height="26" as="geometry" />
        </mxCell>
        <mxCell id="ApvpiUU_C9zp6BNjHnd6-117" value="&lt;font face=&quot;YaHei Consolas Hybrid&quot;&gt;&lt;span style=&quot;font-size: 12px&quot;&gt;用户进程&lt;/span&gt;&lt;/font&gt;" style="text;strokeColor=none;fillColor=none;fontSize=24;fontStyle=1;verticalAlign=middle;align=center;comic=1;fontFamily=Comic Sans MS;spacing=0;horizontal=1;labelPosition=center;verticalLabelPosition=middle;labelBackgroundColor=default;html=1;" vertex="1" parent="1">
          <mxGeometry x="-685.48" y="37" width="80" height="20" as="geometry" />
        </mxCell>
        <mxCell id="ApvpiUU_C9zp6BNjHnd6-123" value="&lt;font face=&quot;Comic Sans MS&quot;&gt;&lt;b&gt;文件描述符&lt;/b&gt;&lt;/font&gt;" style="rounded=0;whiteSpace=wrap;html=1;fillColor=#dae8fc;strokeColor=#6c8ebf;comic=1;" vertex="1" parent="1">
          <mxGeometry x="-424" y="157" width="64" height="20" as="geometry" />
        </mxCell>
        <mxCell id="ApvpiUU_C9zp6BNjHnd6-125" value="&lt;font face=&quot;Comic Sans MS&quot; style=&quot;font-size: 12px&quot;&gt;&lt;b&gt;0&lt;/b&gt;&lt;/font&gt;" style="rounded=0;whiteSpace=wrap;html=1;fillColor=#dae8fc;strokeColor=#6c8ebf;comic=1;" vertex="1" parent="1">
          <mxGeometry x="-424" y="177.5" width="64" height="20" as="geometry" />
        </mxCell>
        <mxCell id="ApvpiUU_C9zp6BNjHnd6-126" value="&lt;b style=&quot;font-family: &amp;#34;comic sans ms&amp;#34;&quot;&gt;1&lt;/b&gt;" style="rounded=0;whiteSpace=wrap;html=1;fillColor=#dae8fc;strokeColor=#6c8ebf;comic=1;" vertex="1" parent="1">
          <mxGeometry x="-424" y="195.5" width="64" height="20" as="geometry" />
        </mxCell>
        <mxCell id="ApvpiUU_C9zp6BNjHnd6-127" value="&lt;b style=&quot;font-family: &amp;#34;comic sans ms&amp;#34;&quot;&gt;2&lt;/b&gt;" style="rounded=0;whiteSpace=wrap;html=1;fillColor=#dae8fc;strokeColor=#6c8ebf;comic=1;" vertex="1" parent="1">
          <mxGeometry x="-424" y="215.5" width="64" height="20" as="geometry" />
        </mxCell>
        <mxCell id="ApvpiUU_C9zp6BNjHnd6-128" value="&lt;b style=&quot;font-family: &amp;#34;comic sans ms&amp;#34;&quot;&gt;...&lt;/b&gt;" style="rounded=0;whiteSpace=wrap;html=1;fillColor=#dae8fc;strokeColor=#6c8ebf;comic=1;" vertex="1" parent="1">
          <mxGeometry x="-424" y="235.5" width="64" height="20" as="geometry" />
        </mxCell>
        <mxCell id="ApvpiUU_C9zp6BNjHnd6-129" value="&lt;b style=&quot;font-family: &amp;#34;comic sans ms&amp;#34;&quot;&gt;5000&lt;/b&gt;" style="rounded=0;whiteSpace=wrap;html=1;fillColor=#dae8fc;strokeColor=#6c8ebf;comic=1;" vertex="1" parent="1">
          <mxGeometry x="-424" y="255.5" width="64" height="20" as="geometry" />
        </mxCell>
        <mxCell id="ApvpiUU_C9zp6BNjHnd6-130" value="&lt;b style=&quot;font-family: &amp;#34;comic sans ms&amp;#34;&quot;&gt;5001&lt;/b&gt;" style="rounded=0;whiteSpace=wrap;html=1;fillColor=#dae8fc;strokeColor=#6c8ebf;comic=1;" vertex="1" parent="1">
          <mxGeometry x="-424" y="275.5" width="64" height="20" as="geometry" />
        </mxCell>
        <mxCell id="ApvpiUU_C9zp6BNjHnd6-131" value="&lt;b style=&quot;font-family: &amp;#34;comic sans ms&amp;#34;&quot;&gt;5002&lt;/b&gt;" style="rounded=0;whiteSpace=wrap;html=1;fillColor=#dae8fc;strokeColor=#6c8ebf;comic=1;" vertex="1" parent="1">
          <mxGeometry x="-424" y="295.5" width="64" height="20" as="geometry" />
        </mxCell>
        <mxCell id="ApvpiUU_C9zp6BNjHnd6-132" value="&lt;b style=&quot;font-family: &amp;#34;comic sans ms&amp;#34;&quot;&gt;...&lt;/b&gt;" style="rounded=0;whiteSpace=wrap;html=1;fillColor=#dae8fc;strokeColor=#6c8ebf;comic=1;" vertex="1" parent="1">
          <mxGeometry x="-424" y="313.25" width="64" height="20" as="geometry" />
        </mxCell>
        <mxCell id="ApvpiUU_C9zp6BNjHnd6-133" value="&lt;b style=&quot;font-family: &amp;#34;comic sans ms&amp;#34;&quot;&gt;file&lt;/b&gt;" style="rounded=0;whiteSpace=wrap;html=1;fillColor=#d5e8d4;strokeColor=#82b366;comic=1;" vertex="1" parent="1">
          <mxGeometry x="-360" y="294.25" width="64" height="20" as="geometry" />
        </mxCell>
        <mxCell id="ApvpiUU_C9zp6BNjHnd6-134" value="&lt;b style=&quot;font-family: &amp;#34;comic sans ms&amp;#34;&quot;&gt;file&lt;/b&gt;" style="rounded=0;whiteSpace=wrap;html=1;fillColor=#d5e8d4;strokeColor=#82b366;comic=1;" vertex="1" parent="1">
          <mxGeometry x="-360" y="313.5" width="64" height="20" as="geometry" />
        </mxCell>
        <mxCell id="ApvpiUU_C9zp6BNjHnd6-145" style="edgeStyle=orthogonalEdgeStyle;rounded=1;orthogonalLoop=1;jettySize=auto;html=1;exitX=0;exitY=0.5;exitDx=0;exitDy=0;entryX=0.996;entryY=0.711;entryDx=0;entryDy=0;entryPerimeter=0;fontFamily=Comic Sans MS;fontSize=12;" edge="1" parent="1" source="ApvpiUU_C9zp6BNjHnd6-143" target="ApvpiUU_C9zp6BNjHnd6-24">
          <mxGeometry relative="1" as="geometry" />
        </mxCell>
        <mxCell id="ApvpiUU_C9zp6BNjHnd6-143" value="&lt;font face=&quot;Comic Sans MS&quot;&gt;&lt;b&gt;struct file *file&lt;/b&gt;&lt;/font&gt;" style="rounded=0;whiteSpace=wrap;html=1;fillColor=#d5e8d4;strokeColor=#82B366;comic=1;imageWidth=24;" vertex="1" parent="1">
          <mxGeometry x="-14.5" y="227.5" width="160" height="26" as="geometry" />
        </mxCell>
        <mxCell id="ApvpiUU_C9zp6BNjHnd6-146" value="" style="rounded=0;whiteSpace=wrap;html=1;comic=1;fontFamily=Comic Sans MS;fontSize=14;fillColor=#dae8fc;strokeColor=#6c8ebf;" vertex="1" parent="1">
          <mxGeometry x="209" y="164.5" width="192" height="210.5" as="geometry" />
        </mxCell>
        <mxCell id="ApvpiUU_C9zp6BNjHnd6-147" value="&lt;font face=&quot;Comic Sans MS&quot;&gt;&lt;b&gt;协议处理函数集合 sk_prot&lt;/b&gt;&lt;/font&gt;" style="rounded=0;whiteSpace=wrap;html=1;fillColor=#ffe6cc;strokeColor=#d79b00;comic=1;imageWidth=24;" vertex="1" parent="1">
          <mxGeometry x="218" y="342.5" width="174" height="26" as="geometry" />
        </mxCell>
        <mxCell id="ApvpiUU_C9zp6BNjHnd6-148" value="&lt;font style=&quot;font-size: 12px&quot;&gt;struct sock&lt;/font&gt;" style="text;strokeColor=none;fillColor=none;fontSize=24;fontStyle=1;verticalAlign=middle;align=center;comic=1;fontFamily=Comic Sans MS;spacing=0;horizontal=1;labelPosition=center;verticalLabelPosition=middle;labelBackgroundColor=default;html=1;" vertex="1" parent="1">
          <mxGeometry x="246.5" y="136" width="117" height="20" as="geometry" />
        </mxCell>
        <mxCell id="ApvpiUU_C9zp6BNjHnd6-149" value="&lt;font face=&quot;Comic Sans MS&quot;&gt;&lt;b&gt;接收队列 sk_receive_queue&lt;/b&gt;&lt;/font&gt;" style="rounded=0;whiteSpace=wrap;html=1;fillColor=#d5e8d4;strokeColor=#82B366;comic=1;imageWidth=24;" vertex="1" parent="1">
          <mxGeometry x="218" y="170" width="174" height="26" as="geometry" />
        </mxCell>
        <mxCell id="ApvpiUU_C9zp6BNjHnd6-150" value="&lt;font face=&quot;Comic Sans MS&quot;&gt;&lt;b&gt;等待队列 *sk_wq&lt;/b&gt;&lt;/font&gt;" style="rounded=0;whiteSpace=wrap;html=1;fillColor=#d5e8d4;strokeColor=#82B366;comic=1;imageWidth=24;" vertex="1" parent="1">
          <mxGeometry x="218" y="268" width="174" height="26" as="geometry" />
        </mxCell>
        <mxCell id="ApvpiUU_C9zp6BNjHnd6-151" value="&lt;font face=&quot;Comic Sans MS&quot;&gt;&lt;b&gt;数据就绪回调函数指针sk_data_ready&lt;/b&gt;&lt;/font&gt;" style="rounded=0;whiteSpace=wrap;html=1;fillColor=#ffe6cc;strokeColor=#d79b00;comic=1;imageWidth=24;" vertex="1" parent="1">
          <mxGeometry x="218" y="301.5" width="174" height="33" as="geometry" />
        </mxCell>
        <mxCell id="ApvpiUU_C9zp6BNjHnd6-153" value="&lt;font face=&quot;Comic Sans MS&quot;&gt;&lt;b&gt;发送队列 sk_write_queue&lt;/b&gt;&lt;/font&gt;" style="rounded=0;whiteSpace=wrap;html=1;fillColor=#d5e8d4;strokeColor=#82B366;comic=1;imageWidth=24;" vertex="1" parent="1">
          <mxGeometry x="218" y="201.5" width="174" height="26" as="geometry" />
        </mxCell>
        <mxCell id="ApvpiUU_C9zp6BNjHnd6-156" style="edgeStyle=orthogonalEdgeStyle;rounded=1;orthogonalLoop=1;jettySize=auto;html=1;exitX=0;exitY=0.5;exitDx=0;exitDy=0;entryX=1.001;entryY=0.571;entryDx=0;entryDy=0;entryPerimeter=0;fontFamily=Comic Sans MS;fontSize=12;" edge="1" parent="1" source="ApvpiUU_C9zp6BNjHnd6-154" target="ApvpiUU_C9zp6BNjHnd6-29">
          <mxGeometry relative="1" as="geometry" />
        </mxCell>
        <mxCell id="ApvpiUU_C9zp6BNjHnd6-154" value="&lt;font face=&quot;Comic Sans MS&quot;&gt;&lt;b&gt;socket *socket&lt;/b&gt;&lt;/font&gt;" style="rounded=0;whiteSpace=wrap;html=1;fillColor=#d5e8d4;strokeColor=#82B366;comic=1;imageWidth=24;" vertex="1" parent="1">
          <mxGeometry x="218" y="235" width="174" height="26" as="geometry" />
        </mxCell>
        <mxCell id="ApvpiUU_C9zp6BNjHnd6-157" style="edgeStyle=orthogonalEdgeStyle;rounded=1;orthogonalLoop=1;jettySize=auto;html=1;exitX=0.5;exitY=1;exitDx=0;exitDy=0;entryX=0.576;entryY=-0.002;entryDx=0;entryDy=0;entryPerimeter=0;fontFamily=Comic Sans MS;fontSize=12;strokeColor=#0000FF;" edge="1" parent="1" source="ApvpiUU_C9zp6BNjHnd6-24" target="ApvpiUU_C9zp6BNjHnd6-64">
          <mxGeometry relative="1" as="geometry" />
        </mxCell>
        <mxCell id="ApvpiUU_C9zp6BNjHnd6-158" style="edgeStyle=orthogonalEdgeStyle;rounded=1;orthogonalLoop=1;jettySize=auto;html=1;exitX=0.5;exitY=1;exitDx=0;exitDy=0;entryX=0.44;entryY=0.16;entryDx=0;entryDy=0;entryPerimeter=0;fontFamily=Comic Sans MS;fontSize=12;strokeColor=#0000FF;" edge="1" parent="1" source="ApvpiUU_C9zp6BNjHnd6-30" target="ApvpiUU_C9zp6BNjHnd6-110">
          <mxGeometry relative="1" as="geometry" />
        </mxCell>
        <mxCell id="ApvpiUU_C9zp6BNjHnd6-159" style="edgeStyle=orthogonalEdgeStyle;rounded=1;orthogonalLoop=1;jettySize=auto;html=1;exitX=0.5;exitY=1;exitDx=0;exitDy=0;entryX=0.433;entryY=0.12;entryDx=0;entryDy=0;entryPerimeter=0;fontFamily=Comic Sans MS;fontSize=12;strokeColor=#0000FF;" edge="1" parent="1" source="ApvpiUU_C9zp6BNjHnd6-147" target="ApvpiUU_C9zp6BNjHnd6-87">
          <mxGeometry relative="1" as="geometry" />
        </mxCell>
      </root>
    </mxGraphModel>
  </diagram>
</mxfile>
